# xmcd CD database file
#
# Track frame offsets:
#	150
#	37589
#	55544
#	96860
#	117217
#	133393
#	157807
#	186594
#
# Disc length: 2922 seconds
#
# Revision: 0
# Processed by: cddbd v1.5.2PL0 Copyright (c) Steve Scherf et al.
# Submitted via: CDex 1.51
#
DISCID=610b6808
DTITLE=Kurt Rosenwinkel - East Coast Love Affair
DYEAR=1996
DGENRE=Jazz
TTITLE0=East Coast Love Affair
TTITLE1=All Or Nothing at All
TTITLE2=Turn Out The Stars
TTITLE3=Pannonica
TTITLE4=Lazy Bird
TTITLE5=Round About Midnight
TTITLE6=Little White Lies
TTITLE7=B Blues
EXTD=YEAR: 1996
EXTT0=
EXTT1=
EXTT2=
EXTT3=
EXTT4=
EXTT5=
EXTT6=
EXTT7=
PLAYORDER=
